<svg width="38" height="29" viewBox="0 0 38 29" fill="none" xmlns="http://www.w3.org/2000/svg">
<path d="M17.9917 15.4421L19.3617 17.3951L20.7335 15.4421L19.3617 13.4871L17.9917 15.4421Z" fill="white"/>
<path d="M34.8005 9.15845C34.6392 8.99489 34.4332 8.88389 34.2098 8.83911C33.9863 8.79432 33.7531 8.81769 33.5413 8.90532C33.3295 8.99294 33.1488 9.14288 33.0224 9.33565C32.8961 9.52648 32.8281 9.75235 32.8281 9.98407C32.8281 10.2937 32.9525 10.5897 33.1682 10.8077C33.3839 11.0258 33.6773 11.1485 33.9843 11.1505C34.2136 11.1505 34.4371 11.0823 34.6256 10.9538C34.8141 10.8253 34.9637 10.6442 35.0511 10.43C35.1386 10.2177 35.1619 9.98213 35.1172 9.75625C35.0725 9.53037 34.9618 9.32202 34.8005 9.15845Z" fill="white"/>
<path d="M32.111 11.5632L25.4225 14.7683C25.2865 14.8345 25.131 14.8501 24.9853 14.8112C24.8396 14.7722 24.7113 14.6826 24.6258 14.5561L20.1254 8.09326C19.3365 8.39119 18.4679 8.39119 17.6789 8.09326L13.2174 14.5931C13.1319 14.7177 13.0036 14.8092 12.8579 14.8482C12.7121 14.8871 12.5567 14.8715 12.4206 14.8053L5.72636 11.6002C5.59034 11.7599 5.43294 11.8981 5.25806 12.015L8.58285 21.311H29.2487L32.5735 11.978C32.4005 11.8592 32.2431 11.719 32.1052 11.5632H32.111ZM22.0278 15.8081L19.8806 18.8808C19.8223 18.9646 19.7445 19.0327 19.6532 19.0795C19.5638 19.1262 19.4628 19.1515 19.3617 19.1496C19.2587 19.1496 19.1596 19.1262 19.0683 19.0795C18.977 19.0327 18.8992 18.9646 18.839 18.8808L16.6918 15.8081C16.616 15.6991 16.5752 15.5706 16.5752 15.4382C16.5752 15.3058 16.616 15.1753 16.6918 15.0682L18.839 11.9994C18.8992 11.9176 18.9789 11.8514 19.0702 11.8066C19.1616 11.7618 19.2607 11.7385 19.3637 11.7404C19.4647 11.7404 19.5638 11.7618 19.6551 11.8066C19.7445 11.8514 19.8242 11.9176 19.8844 11.9994L22.0317 15.0682C22.1094 15.1753 22.1502 15.3058 22.1502 15.4382C22.1502 15.5706 22.1094 15.701 22.0317 15.8081H22.0278Z" fill="white"/>
<path d="M17.3058 6.35643C17.7314 6.78482 18.3046 7.02822 18.9051 7.03211C19.3559 7.03211 19.797 6.89776 20.174 6.64462C20.549 6.39148 20.8424 6.03125 21.0154 5.61065C21.1883 5.19005 21.233 4.72661 21.1456 4.27875C21.0581 3.83089 20.8405 3.42198 20.5218 3.09874C20.2031 2.77745 19.7951 2.55741 19.354 2.46784C18.9109 2.37826 18.4523 2.425 18.0345 2.5983C17.6168 2.77355 17.2612 3.06759 17.0105 3.44729C16.7598 3.827 16.6257 4.27096 16.6257 4.72661L16.6393 4.74024C16.6432 5.34583 16.8842 5.9261 17.3078 6.35449L17.3058 6.35643Z" fill="white"/>
<path d="M4.6867 9.16035C4.52541 8.99678 4.31944 8.88579 4.09597 8.83905C3.8725 8.79427 3.63932 8.81569 3.42751 8.90526C3.21571 8.99289 3.03498 9.14282 2.90867 9.3356C2.78237 9.52837 2.71436 9.7523 2.71436 9.98402C2.71436 10.2917 2.83484 10.5877 3.05054 10.8077C3.26623 11.0258 3.55965 11.1504 3.86473 11.1504C4.09403 11.1504 4.31749 11.0842 4.50793 10.9557C4.69836 10.8291 4.84799 10.6461 4.93543 10.4338C5.02287 10.2216 5.04619 9.98597 5.00344 9.76009C4.95874 9.53421 4.84993 9.32586 4.68864 9.16229L4.6867 9.16035Z" fill="white"/>
<path d="M29.0855 22.5786H8.79858V25.7896H29.0855V22.5786Z" fill="white"/>
<path d="M18.806 1.26437C19.5289 1.26437 20.2362 1.4883 20.8308 1.905C21.4254 2.32171 21.8801 2.91171 22.1328 3.59713C22.3854 4.28255 22.4262 5.02834 22.2455 5.73518C22.0667 6.44397 21.6781 7.07876 21.1301 7.55777L25.2613 13.4968L31.4678 10.5234C31.4426 10.3812 31.429 10.2371 31.4309 10.093C31.4309 9.44267 31.6874 8.81957 32.1421 8.36002C32.5968 7.90048 33.2148 7.6415 33.858 7.6415C34.5012 7.6415 35.1191 7.90048 35.5738 8.36002C36.0285 8.81957 36.285 9.44267 36.285 10.093C36.285 10.4319 36.2151 10.7668 36.081 11.0764C35.9469 11.386 35.7487 11.6644 35.5038 11.8942C35.257 12.124 34.9656 12.2992 34.6488 12.4102C34.3923 12.4998 34.1242 12.5446 33.8521 12.5446C33.788 12.5446 33.7239 12.5426 33.6598 12.5368L30.2359 22.1483V26.5392C30.2359 26.7106 30.1659 26.8742 30.0474 26.9929C29.9269 27.1137 29.7656 27.1799 29.5966 27.1799H8.03686C7.86781 27.1799 7.70652 27.1117 7.58799 26.991C7.46945 26.8703 7.40145 26.7067 7.40145 26.5373V22.1463L3.96395 12.5349L3.74824 12.5387C3.26633 12.5387 2.79609 12.3947 2.39774 12.1259C1.99744 11.8553 1.68652 11.4736 1.50192 11.0238C1.31732 10.576 1.26874 10.0814 1.36396 9.60624C1.45723 9.12917 1.69041 8.693 2.03047 8.35029C2.37053 8.00758 2.80386 7.77391 3.27605 7.6785C3.43345 7.64734 3.59279 7.63177 3.75019 7.63177C4.06887 7.63177 4.38368 7.69408 4.68098 7.8187C5.12597 8.00368 5.5049 8.31913 5.77306 8.72221C6.04122 9.12528 6.18307 9.6004 6.18307 10.0853C6.18307 10.2294 6.16946 10.3734 6.14614 10.5156L12.3527 13.489L16.4839 7.55388C15.9359 7.07486 15.5473 6.44007 15.3685 5.73128C15.1897 5.02444 15.2286 4.27671 15.4812 3.59324C15.7338 2.90782 16.1885 2.31781 16.7832 1.90111C17.3778 1.4844 18.0851 1.26047 18.808 1.26047L18.806 1.26437ZM18.808 0.286865C17.8811 0.286865 16.9872 0.569212 16.2255 1.10275C15.4657 1.63629 14.8924 2.38012 14.5699 3.25442C14.2473 4.12872 14.1968 5.06728 14.4261 5.97079C14.5815 6.58416 14.8575 7.1508 15.2364 7.6415L12.0262 12.2525L7.14882 9.91585C7.11773 9.29468 6.92342 8.69884 6.58142 8.18283C6.20638 7.61619 5.67784 7.18001 5.05407 6.91908C4.63823 6.74578 4.19906 6.65621 3.74824 6.65621C3.52478 6.65621 3.30131 6.67763 3.08368 6.72241C2.42105 6.85482 1.81672 7.18001 1.3387 7.66292C0.862616 8.14388 0.540041 8.75141 0.409847 9.41736C0.27771 10.0833 0.34572 10.7668 0.602221 11.3938C0.860665 12.0227 1.294 12.5543 1.85364 12.9321C2.28114 13.2203 2.76305 13.4053 3.26828 13.4773L6.42985 22.3138V26.5353C6.42985 26.9657 6.59696 27.3707 6.89816 27.6745C7.19741 27.9763 7.61325 28.1496 8.03686 28.1496H29.5966C30.026 28.1496 30.4302 27.9821 30.7353 27.6764C31.0384 27.3726 31.2055 26.9696 31.2094 26.5412V22.3118L34.3574 13.4754C34.5653 13.4442 34.7693 13.3936 34.9695 13.3235C35.4164 13.1677 35.8186 12.9243 36.1665 12.6011C36.5124 12.2778 36.7844 11.8942 36.9729 11.458C37.1614 11.0219 37.2585 10.5623 37.2585 10.0872C37.2585 9.17396 36.9049 8.31524 36.2656 7.66876C35.6243 7.02034 34.7693 6.664 33.8599 6.664C32.9505 6.664 32.0955 7.02034 31.4542 7.66876C30.8538 8.27629 30.506 9.06881 30.4652 9.91974L25.5878 12.2564L22.3776 7.6415C22.7585 7.1508 23.0344 6.58416 23.1879 5.97079C23.4172 5.06728 23.3667 4.12872 23.0441 3.25442C22.7215 2.38012 22.1483 1.63629 21.3885 1.10275C20.6268 0.569212 19.7349 0.286865 18.806 0.286865H18.808Z" fill="white"/>
</svg>
