<svg width="37" height="42" viewBox="0 0 37 42" fill="none" xmlns="http://www.w3.org/2000/svg">
<path d="M9.53054 3.76782L8.35686 5.34507C9.75012 6.53092 13.1935 7.2475 15.809 7.61163C13.7045 6.12979 10.7295 4.44351 9.53249 3.76977L9.53054 3.76782Z" fill="white"/>
<path d="M6.58856 39.063H18.1894H29.7941V36.6602H6.58856V39.063Z" fill="white"/>
<path d="M29.0421 6.27588C26.479 8.61254 19.1124 9.21228 18.2321 9.27459H18.133C17.2528 9.21228 9.88615 8.61449 7.32308 6.27588L3.71652 8.35745L2.51369 30.2617L4.92324 30.6687L6.12608 14.8826C6.13968 14.6956 6.22712 14.5204 6.36897 14.3977C6.51083 14.275 6.69543 14.2147 6.88003 14.2283C7.06658 14.2419 7.23952 14.3315 7.36 14.4737C7.48048 14.6158 7.54072 14.8027 7.52711 14.9897L6.334 30.6395C6.41172 30.7057 6.47391 30.7874 6.51666 30.879C6.55941 30.9705 6.58273 31.0717 6.58273 31.173V35.2427H29.7883V31.173C29.7883 31.0717 29.8116 30.9705 29.8544 30.879C29.8971 30.7874 29.9593 30.7057 30.037 30.6395L28.8439 14.9897C28.8361 14.8962 28.8478 14.8027 28.8769 14.7151C28.9061 14.6255 28.9508 14.5438 29.011 14.4737C29.0713 14.4036 29.1451 14.3451 29.2267 14.3023C29.3083 14.2595 29.3996 14.2342 29.491 14.2283C29.5823 14.2205 29.6756 14.2322 29.763 14.2614C29.8505 14.2906 29.9321 14.3374 30.002 14.3977C30.072 14.4581 30.1303 14.5321 30.1711 14.6158C30.2138 14.6995 30.2372 14.7891 30.2449 14.8826L31.4478 30.6687L33.8573 30.2617L32.6467 8.35745L29.0402 6.27588H29.0421ZM14.3497 32.2732C13.8736 32.7872 13.2926 33.1884 12.6455 33.4512C11.9984 33.7141 11.3027 33.8309 10.6071 33.7939C10.4205 33.7939 10.2417 33.7199 10.1116 33.5856C9.97942 33.4532 9.90558 33.2721 9.90558 33.0852C9.90558 32.8982 9.97942 32.7171 10.1116 32.5847C10.2437 32.4523 10.4225 32.3764 10.6071 32.3764C11.1045 32.4095 11.602 32.3335 12.0683 32.1524C12.5328 31.9714 12.9544 31.6929 13.3023 31.3327C14.5692 29.9073 14.3263 27.4285 14.3263 27.4285C14.3069 27.2416 14.3613 27.0546 14.4779 26.9086C14.5945 26.7625 14.7636 26.6691 14.9482 26.6496C15.0395 26.6399 15.1328 26.6477 15.2202 26.673C15.3076 26.6983 15.3912 26.7411 15.4631 26.7995C15.535 26.858 15.5952 26.93 15.638 27.0098C15.6827 27.0916 15.7099 27.1812 15.7196 27.2727C15.7526 27.3993 16.0383 30.3844 14.3497 32.2712V32.2732ZM26.2361 33.5875C26.104 33.72 25.9252 33.7959 25.7406 33.7959C25.045 33.8329 24.3493 33.7161 23.7022 33.4532C23.0551 33.1903 22.4741 32.7892 21.998 32.2751C20.3094 30.3727 20.6281 27.4032 20.6281 27.2766C20.6495 27.0897 20.7427 26.9164 20.8885 26.7995C21.0342 26.6808 21.2208 26.6262 21.4073 26.6477C21.5939 26.6691 21.7629 26.7625 21.8815 26.9105C21.998 27.0585 22.0525 27.2455 22.033 27.4343C22.033 27.4577 21.7901 29.9229 23.0571 31.3385C23.4049 31.6987 23.8266 31.9791 24.291 32.1583C24.7535 32.3374 25.249 32.4134 25.7426 32.3822H25.7503C25.7503 32.3822 25.7445 32.3822 25.7426 32.3822C25.9291 32.3822 26.1059 32.4562 26.2381 32.5886C26.3702 32.721 26.4441 32.9021 26.4441 33.0891C26.4441 33.276 26.3702 33.4571 26.2381 33.5895L26.2361 33.5875Z" fill="white"/>
<path d="M27.9889 5.34507L26.8152 3.76782C25.6182 4.44351 22.6432 6.14732 20.5329 7.60968C23.1523 7.23192 26.5859 6.52313 27.9889 5.34312V5.34507Z" fill="white"/>
<path d="M25.2335 3.03772C22.9075 2.55481 20.5407 2.30362 18.1661 2.28804L18.1894 2.27441C15.807 2.29389 13.4344 2.54897 11.1026 3.03967C13.0535 4.15932 16.4716 6.21753 18.1661 7.63315C19.8644 6.19805 23.2825 4.15932 25.2335 3.03967V3.03772Z" fill="white"/>
<path d="M18.0748 0.973608C18.3138 0.973608 23.9179 0.98724 27.1592 2.29577C27.2855 2.34056 27.3943 2.42234 27.472 2.53138L29.2772 4.96735L33.5659 7.44616C33.6669 7.50458 33.7543 7.58831 33.8165 7.68956C33.8787 7.79082 33.9156 7.90375 33.9215 8.02253L35.1806 30.9471C35.1904 31.1204 35.136 31.2937 35.0291 31.4281C34.9203 31.5644 34.7667 31.6539 34.5957 31.6832L31.0825 32.2732V39.8731C31.0825 40.0601 31.0086 40.2412 30.8765 40.3736C30.7443 40.506 30.5656 40.58 30.381 40.58H5.77242C5.58588 40.58 5.4071 40.506 5.27691 40.3736C5.14477 40.2412 5.07093 40.0601 5.07093 39.8731V32.2634L1.55765 31.6734C1.38665 31.6462 1.23313 31.5546 1.12431 31.4183C1.0155 31.282 0.96303 31.1107 0.972746 30.9374L2.23193 8.0128C2.2397 7.89402 2.27468 7.77913 2.33686 7.67982C2.39905 7.57857 2.48455 7.49678 2.58754 7.43642L6.87615 4.95762L8.68138 2.53138C8.7591 2.42234 8.86987 2.34056 8.99423 2.29577C12.2355 0.97361 17.8357 0.973608 18.0728 0.973608H18.0748ZM18.0728 0C17.4568 0 11.9654 0.0389453 8.64251 1.38837C8.34326 1.5013 8.08676 1.69603 7.89827 1.95501L6.21547 4.21573L2.0998 6.59328C1.86078 6.73153 1.65481 6.93014 1.50907 7.1677C1.36333 7.40332 1.27783 7.67593 1.26034 7.95438L0.00309456 30.8848C-0.0221669 31.2957 0.108027 31.7026 0.364528 32.0259C0.622972 32.353 0.992178 32.5691 1.40219 32.6353L4.09934 33.0891V39.8751C4.09934 40.323 4.27228 40.7436 4.58708 41.061C4.89993 41.3764 5.33132 41.5555 5.77242 41.5555H30.381C30.8221 41.5555 31.2554 41.3745 31.5663 41.061C31.8811 40.7436 32.0541 40.321 32.0541 39.8731V33.0968L34.7551 32.6431C35.1593 32.5769 35.5285 32.3608 35.7869 32.0356C36.0454 31.7104 36.1736 31.3034 36.1483 30.8906L34.8911 7.96996C34.8736 7.68567 34.7881 7.415 34.6424 7.17744C34.4966 6.93988 34.2907 6.74126 34.0497 6.60301L29.936 4.22741L28.2532 1.95696C28.0647 1.69798 27.8062 1.5013 27.505 1.38837C24.1492 0.0408925 18.6849 0.00194912 18.0728 0.00194912V0Z" fill="white"/>
</svg>
