<svg width="40" height="37" viewBox="0 0 40 37" fill="none" xmlns="http://www.w3.org/2000/svg">
<path d="M28.1964 23.9844C28.4082 23.7702 28.5773 23.5151 28.6939 23.2347C28.8085 22.9544 28.8688 22.6545 28.8688 22.3507C28.8688 22.0469 28.8105 21.7471 28.6939 21.4667C28.5792 21.1863 28.4102 20.9312 28.1964 20.717L19.3646 11.8046C18.9352 11.3723 18.3522 11.1289 17.7459 11.1289C17.1397 11.1289 16.5567 11.3723 16.1273 11.8046L15.8086 12.1259L27.8778 24.3057L28.1964 23.9844Z" fill="white"/>
<path d="M12.2215 21.6106C12.3808 21.525 12.5635 21.4938 12.7403 21.5211C12.9191 21.5503 13.0823 21.6379 13.2048 21.7703C13.3291 21.9027 13.4049 22.0721 13.4243 22.2532C13.4418 22.4343 13.401 22.6154 13.3058 22.7712L11.1314 26.3833L14.3221 29.6079L16.5956 27.314C16.7491 27.1583 16.959 27.0706 17.1747 27.0706C17.3904 27.0706 17.6002 27.1583 17.7557 27.314C17.9092 27.4698 17.9967 27.6801 17.9967 27.9002C17.9967 28.1202 17.9112 28.3305 17.7557 28.4863L15.4822 30.7801L18.4708 33.7963L24.4539 27.7716L12.3945 15.5918C10.9254 17.0366 7.04874 20.3508 3.34308 19.2214C3.03411 19.7919 2.7951 20.8649 4.12036 22.2007C6.11795 24.216 10.6456 22.4596 12.2215 21.6106Z" fill="white"/>
<path d="M26.7139 25.4721L14.6506 13.2961L13.5371 14.4158L25.6101 26.5917L26.7139 25.4721Z" fill="white"/>
<path d="M35.9886 6.20058L35.9925 6.18111C36.2257 5.95523 36.385 5.66315 36.4549 5.3438C36.5229 5.02446 36.4958 4.69149 36.3772 4.38967C36.2587 4.0859 36.0527 3.82497 35.7845 3.63999C35.5183 3.455 35.2035 3.35375 34.879 3.34985H34.8518C34.6322 3.3518 34.4146 3.39853 34.2125 3.49005C34.0104 3.57962 33.8316 3.71009 33.682 3.87365L24.106 14.2601L25.6955 15.8646L35.9866 6.20058H35.9886Z" fill="white"/>
<path d="M34.7801 1.80367C35.1979 1.80367 35.6137 1.88351 36.0062 2.04318C36.6183 2.29243 37.143 2.72471 37.5083 3.27967C37.8736 3.83462 38.064 4.49083 38.0543 5.15678C38.0465 5.60464 37.9455 6.04471 37.7609 6.45168C37.5763 6.85865 37.3101 7.22278 36.9797 7.5207L26.7313 17.1458L29.2245 19.6577C29.959 20.4015 30.3709 21.4102 30.3709 22.4598C30.3709 23.5093 29.959 24.518 29.2245 25.2618L18.9334 35.6483C18.8576 35.7261 18.7662 35.7865 18.6671 35.8293C18.568 35.8722 18.4612 35.8936 18.3523 35.8936C18.2455 35.8936 18.1386 35.8722 18.0395 35.8293C17.9404 35.7865 17.851 35.7261 17.7772 35.6483L9.40006 27.1973C9.26987 27.0669 9.18632 26.8955 9.16494 26.7105C9.14357 26.5255 9.18245 26.3406 9.27766 26.1809L10.4844 24.1791C9.37676 24.553 8.01262 24.8879 6.66987 24.8879C5.32713 24.8879 3.89113 24.5257 2.84569 23.4704C1.28337 21.899 1.2173 20.421 1.44271 19.4766C1.59817 18.8282 1.92075 18.2304 2.3774 17.7494C2.49399 17.6326 2.64361 17.5528 2.80489 17.5236C2.85347 17.5138 2.904 17.5099 2.95452 17.5099C3.06722 17.5099 3.17992 17.5333 3.28485 17.58C3.78425 17.804 4.30307 17.9013 4.82384 17.9013C8.13892 17.9013 11.6308 14.0088 11.6755 13.964L14.8702 10.7356C15.6066 9.99367 16.6054 9.57891 17.6469 9.57891C18.6885 9.57891 19.6854 9.99562 20.4238 10.7356L22.8508 13.191L32.388 2.84738C32.8408 2.36058 33.4276 2.02176 34.0727 1.87962C34.3059 1.82704 34.543 1.80173 34.7781 1.80173L34.7801 1.80367ZM34.7781 0.828119C34.4711 0.828119 34.1621 0.861222 33.8609 0.929375C33.0195 1.11631 32.2636 1.55054 31.6749 2.18533L22.8236 11.7832L21.1097 10.0501C20.1809 9.11742 18.9508 8.6053 17.6431 8.6053C16.3353 8.6053 15.1053 9.11742 14.1784 10.0482L10.9818 13.2786C10.9818 13.2786 10.9663 13.2942 10.9449 13.3176C9.70708 14.6592 7.02353 16.9277 4.81801 16.9277C4.40216 16.9277 4.0291 16.8498 3.67544 16.6921C3.4442 16.5889 3.19936 16.5363 2.94868 16.5363C2.83987 16.5363 2.72912 16.5461 2.6203 16.5675C2.26469 16.6337 1.94017 16.805 1.68367 17.0621C1.67784 17.0679 1.67199 17.0737 1.66616 17.0796C1.09098 17.6852 0.684888 18.4368 0.49057 19.2527C0.25933 20.2282 0.166017 22.1638 2.15001 24.1597C3.26929 25.2891 4.78696 25.8635 6.66214 25.8635C7.22178 25.8635 7.80858 25.8129 8.42069 25.7097C8.22637 26.0465 8.14671 26.4418 8.1914 26.8274C8.23998 27.2246 8.42072 27.6004 8.70249 27.8847L17.0757 36.3298C17.2408 36.4992 17.4351 36.6316 17.6508 36.7231C17.8704 36.8166 18.1017 36.8653 18.3407 36.8653C18.5855 36.8653 18.8168 36.8166 19.0364 36.7251C19.2559 36.6316 19.4522 36.4992 19.6174 36.3278L29.9046 25.9472C30.8257 25.0126 31.3329 23.7741 31.3329 22.4598C31.3329 21.1454 30.8257 19.905 29.9046 18.9723L28.1149 17.1692L37.6268 8.23533C38.0563 7.84589 38.3944 7.38245 38.6353 6.85281C38.8763 6.32122 39.0046 5.75653 39.0162 5.17236C39.0298 4.30195 38.785 3.4627 38.3108 2.74029C37.8347 2.01592 37.1624 1.46291 36.3638 1.13773C35.8546 0.931322 35.3203 0.826172 34.7723 0.826172L34.7781 0.828119Z" fill="white"/>
</svg>
