<svg width="37" height="36" viewBox="0 0 37 36" fill="none" xmlns="http://www.w3.org/2000/svg">
<path d="M8.28575 21.546C14.8168 19.809 21.6802 19.809 28.2112 21.546C28.8991 16.6156 27.6438 11.3737 24.9972 8.12769C24.2044 7.07619 23.1842 6.22526 22.0144 5.63915C20.8446 5.05303 19.5582 4.74927 18.2543 4.74927C16.9504 4.74927 15.664 5.05498 14.4942 5.63915C13.3244 6.22526 12.3043 7.07619 11.5114 8.12769C8.85121 11.3737 7.59591 16.6156 8.2838 21.546H8.28575Z" fill="white"/>
<path d="M29.6667 21.9569C31.1027 22.3813 31.8625 22.6695 32.3074 22.8526C32.7544 23.0356 32.8554 23.0356 33.0322 23.0356C33.2091 23.0142 33.3723 22.9285 33.4908 22.7942C33.6094 22.6598 33.6755 22.4845 33.6735 22.3035V20.4108C33.6696 17.634 32.939 14.9079 31.5574 12.5109C30.1758 10.1139 28.1898 8.13356 25.8055 6.77051L26.1359 7.15216C29.0934 10.7662 30.4692 16.5514 29.6647 21.953L29.6667 21.9569Z" fill="white"/>
<path d="M2.85843 32.7425C2.9517 32.8399 3.06441 32.9158 3.18877 32.9684C3.31313 33.021 3.44527 33.0483 3.57935 33.0502C3.75618 33.0502 3.93106 32.9976 4.08069 32.9042C8.79098 30.145 13.4974 28.7293 18.2213 28.7293C22.9452 28.7293 27.5952 30.1216 32.2453 32.9003C32.4007 32.9976 32.5795 33.0502 32.7622 33.0522H32.9157C33.0653 33.0522 33.213 33.0191 33.349 32.9548C33.485 32.8886 33.6036 32.7932 33.6968 32.6763C33.7921 32.5595 33.8601 32.4213 33.897 32.2733C33.9339 32.1253 33.9358 31.9714 33.9067 31.8215L32.4415 24.5039C32.3502 24.4825 32.2608 24.4552 32.1714 24.424C23.4621 20.9736 13.8083 20.8821 5.03868 24.169C4.59757 24.3247 4.27112 24.4435 4.05348 24.5C3.44526 27.5571 3.08578 29.331 2.87203 30.3884C2.74184 30.9238 2.63884 31.4652 2.565 32.0104C2.565 32.1467 2.58832 32.2811 2.63884 32.4076C2.68937 32.5342 2.76321 32.6491 2.85843 32.7464V32.7425Z" fill="white"/>
<path d="M20.1062 3.34335C19.8963 3.04347 19.6165 2.80202 19.292 2.63651C18.9675 2.47294 18.608 2.39116 18.2465 2.39895C17.889 2.39895 17.5373 2.48462 17.2186 2.64819C16.8999 2.81176 16.624 3.04932 16.4141 3.34335H16.4374C17.6558 3.20509 18.8878 3.20509 20.1062 3.34335Z" fill="white"/>
<path d="M3.45305 23.0376C3.63376 23.0609 3.71343 23.0337 4.17008 22.8584C4.62673 22.6832 5.36903 22.3969 6.83031 21.9569C6.02583 16.5553 7.4016 10.7701 10.3591 7.15608L10.6895 6.77832C8.30324 8.13942 6.3173 10.1217 4.93375 12.5168C3.5502 14.9118 2.81956 17.6399 2.81567 20.4186V22.3054C2.81567 22.4846 2.8798 22.6598 2.99833 22.7942C3.11493 22.9285 3.27816 23.0162 3.45305 23.0376Z" fill="white"/>
<path d="M18.1436 0.975555C18.9616 0.975555 19.7564 1.24622 20.4093 1.74665C21.0622 2.24709 21.5364 2.94809 21.7618 3.74644C25.5277 4.59543 28.8991 6.7179 31.3184 9.76724C33.7377 12.8166 35.0629 16.6098 35.0765 20.5237V22.4105C35.0765 22.8292 34.9619 23.242 34.7423 23.5983C34.5227 23.9547 34.2098 24.2409 33.8387 24.4259L35.2747 31.6208C35.3486 31.9908 35.3408 32.3725 35.2533 32.7385C35.164 33.1046 34.9949 33.4473 34.7598 33.7394C34.5246 34.0315 34.2273 34.2671 33.8912 34.4287C33.5569 34.5904 33.1897 34.6721 32.8205 34.6721H32.6631C32.2103 34.6721 31.7672 34.5456 31.3806 34.308C26.9987 31.6793 22.5682 30.3649 18.1222 30.3649C13.6762 30.3649 9.19906 31.6832 4.74528 34.3177C4.36247 34.5495 3.92525 34.6702 3.48026 34.6721C2.81569 34.6721 2.17638 34.4034 1.70613 33.9283C1.23587 33.4512 0.969649 32.8048 0.969649 32.1291C0.969649 31.9434 1.083 31.297 1.30971 30.1896C1.52734 29.1479 1.87713 27.3779 2.45814 24.4278C2.08505 24.2448 1.77025 23.9585 1.55067 23.6003C1.33109 23.242 1.21644 22.8292 1.22033 22.4086V20.5217C1.23393 16.6078 2.55918 12.8146 4.9765 9.76724C7.39577 6.7179 10.7633 4.59543 14.5292 3.7445C14.7527 2.94614 15.2288 2.24514 15.8817 1.74471C16.5346 1.24427 17.3294 0.973608 18.1474 0.973608L18.1436 0.975555ZM18.1474 0C17.1234 0 16.109 0.344657 15.291 0.969714C14.6322 1.47404 14.1114 2.15362 13.7889 2.92082C10.0327 3.89054 6.64959 6.09284 4.21672 9.15971C1.67309 12.3668 0.264279 16.4014 0.248734 20.5178V22.4086C0.242904 23.0044 0.408076 23.5964 0.722872 24.1104C0.901646 24.4006 1.12317 24.6595 1.37967 24.8776C0.874442 27.4402 0.559645 29.031 0.359497 29.991C0.00583667 31.7202 0 31.7533 0 32.131C0 33.0696 0.363374 33.9517 1.01823 34.6137C1.67697 35.2797 2.55142 35.6477 3.4822 35.6477C4.10402 35.6477 4.71418 35.4763 5.24855 35.155C9.52357 32.6276 13.8588 31.3424 18.1241 31.3424C22.3894 31.3424 26.6742 32.6217 30.8831 35.1473C31.4155 35.4724 32.0335 35.6457 32.6631 35.6496H32.8205C33.3374 35.6496 33.8523 35.5328 34.3167 35.3108C34.7811 35.0888 35.197 34.7578 35.5215 34.3547C35.8441 33.9536 36.0811 33.4746 36.2036 32.9722C36.326 32.4698 36.3357 31.9363 36.2346 31.43L34.9249 24.8718C35.1795 24.6557 35.3991 24.3986 35.5759 24.1104C35.8887 23.6003 36.0539 23.0122 36.0539 22.4125V20.5256C36.0403 16.4053 34.6315 12.3707 32.0859 9.16165C29.6511 6.09284 26.268 3.89443 22.5099 2.92472C22.1873 2.15752 21.6666 1.47794 21.0078 0.973608C20.1897 0.348552 19.1754 0.00389452 18.1513 0.00389452L18.1474 0Z" fill="white"/>
</svg>
