<svg width="37" height="41" viewBox="0 0 37 41" fill="none" xmlns="http://www.w3.org/2000/svg">
<path d="M6.65088 27.3005C6.59453 27.244 6.5304 27.1992 6.45656 27.17C6.38466 27.1388 6.30694 27.1233 6.22727 27.1233C6.10873 27.1233 5.99408 27.1583 5.89498 27.2245C5.79587 27.2907 5.72009 27.3842 5.67539 27.4952C5.6307 27.6062 5.61905 27.7269 5.64236 27.8437C5.66568 27.9606 5.72204 28.0677 5.8056 28.1533C5.88915 28.2371 5.99603 28.2955 6.11068 28.3189C6.22727 28.3422 6.3458 28.3305 6.45462 28.2838C6.56343 28.239 6.65671 28.1611 6.72278 28.0618C6.78884 27.9625 6.82383 27.8457 6.82383 27.7269C6.82383 27.6471 6.80827 27.5692 6.77912 27.4952C6.74998 27.4212 6.70529 27.355 6.64893 27.3005H6.65088Z" fill="white"/>
<path d="M24.979 31.7284C24.6662 31.7284 24.3592 31.8219 24.0988 31.9991C23.8384 32.1743 23.6343 32.4255 23.5158 32.7176C23.3953 33.0097 23.3643 33.3329 23.4264 33.6445C23.4886 33.956 23.6382 34.2403 23.8598 34.4643C24.0813 34.6882 24.365 34.8401 24.672 34.9024C24.979 34.9647 25.2977 34.9316 25.5873 34.8109C25.8768 34.6901 26.1236 34.4837 26.2985 34.2209C26.4733 33.958 26.5647 33.6464 26.5647 33.331C26.5647 32.9065 26.3956 32.4995 26.0983 32.1996C25.801 31.8998 25.3988 31.7304 24.979 31.7284Z" fill="white"/>
<path d="M18.5879 31.6622C17.9855 31.6622 17.3987 31.8433 16.8973 32.1802C16.3979 32.519 16.0073 32.998 15.7761 33.5608C15.5449 34.1235 15.4846 34.7408 15.6032 35.3366C15.7197 35.9325 16.0112 36.4816 16.4368 36.9119C16.8623 37.3423 17.4045 37.6343 17.9952 37.7531C18.5859 37.8719 19.1961 37.8115 19.7538 37.5779C20.3096 37.3442 20.7856 36.9509 21.1199 36.4446C21.4541 35.9383 21.6329 35.3444 21.6329 34.7369V34.733C21.6329 33.919 21.3103 33.1382 20.739 32.5618C20.1696 31.9855 19.3963 31.6622 18.5898 31.6622H18.5879Z" fill="white"/>
<path d="M12.3716 31.7284C12.0588 31.7284 11.7517 31.8219 11.4913 31.9991C11.231 32.1743 11.0269 32.4255 10.9084 32.7176C10.7879 33.0097 10.7568 33.3329 10.819 33.6445C10.8793 33.956 11.0308 34.2403 11.2523 34.4643C11.4739 34.6882 11.7576 34.8401 12.0646 34.9024C12.3716 34.9647 12.6903 34.9316 12.9798 34.8109C13.2694 34.6901 13.5162 34.4837 13.691 34.2209C13.8659 33.958 13.9573 33.6464 13.9573 33.331C13.9573 32.9065 13.7882 32.4995 13.4909 32.1996C13.1936 31.8998 12.7913 31.7304 12.3716 31.7284Z" fill="white"/>
<path d="M31.0807 27.1252C30.9621 27.1252 30.8475 27.1603 30.7484 27.2265C30.6512 27.2927 30.5735 27.3861 30.5288 27.4971C30.4841 27.6081 30.4724 27.7288 30.4957 27.8457C30.5191 27.9625 30.5754 28.0696 30.659 28.1553C30.7425 28.239 30.8494 28.2974 30.9641 28.3208C31.0806 28.3442 31.1992 28.3325 31.308 28.2858C31.4168 28.241 31.5101 28.1631 31.5762 28.0638C31.6422 27.9645 31.6772 27.8476 31.6772 27.7289C31.6772 27.5692 31.615 27.4153 31.5023 27.3024C31.3896 27.1895 31.238 27.1252 31.0807 27.1252Z" fill="white"/>
<path d="M28.7138 29.7247C28.539 29.7247 28.366 29.7773 28.2203 29.8766C28.0745 29.9759 27.9599 30.1161 27.8938 30.2797C27.8258 30.4433 27.8083 30.6244 27.8433 30.7977C27.8783 30.971 27.9618 31.1326 28.0862 31.2572C28.2106 31.3818 28.368 31.4675 28.5409 31.5026C28.7139 31.5376 28.8926 31.5201 29.0539 31.4519C29.2171 31.3838 29.3551 31.2689 29.4523 31.1209C29.5494 30.9729 29.6019 30.7996 29.6019 30.6224C29.6019 30.3848 29.5086 30.157 29.3415 29.9876C29.1744 29.8202 28.949 29.7247 28.7138 29.7247Z" fill="white"/>
<path d="M8.60961 29.7247C8.43472 29.7247 8.26177 29.7773 8.11603 29.8766C7.97029 29.9759 7.85564 30.1161 7.78957 30.2797C7.72156 30.4433 7.70407 30.6244 7.73905 30.7977C7.77403 30.971 7.85758 31.1326 7.98195 31.2572C8.10631 31.3818 8.26372 31.4675 8.43666 31.5026C8.6096 31.5376 8.78838 31.5201 8.94966 31.4519C9.11289 31.3838 9.25086 31.2689 9.34802 31.1209C9.44518 30.9729 9.49765 30.7996 9.49765 30.6224C9.49765 30.3848 9.40242 30.157 9.23725 29.9876C9.07014 29.8202 8.84473 29.7247 8.60961 29.7247Z" fill="white"/>
<path d="M29.907 6.99293C27.0077 4.36029 22.9776 2.90961 18.5588 2.90961C14.1399 2.90961 10.1117 4.36029 7.21053 6.99293C4.11309 9.80666 2.47498 13.7322 2.47498 18.3452C2.47109 20.3684 2.79561 22.3779 3.43686 24.2978C3.46601 24.403 3.51653 24.5004 3.58454 24.5841C3.65256 24.6678 3.73805 24.7379 3.83521 24.7905C3.93237 24.8411 4.0373 24.8723 4.14612 24.882C4.25494 24.8917 4.3657 24.8781 4.46869 24.845C4.57363 24.8119 4.66884 24.7574 4.75046 24.6853C4.83207 24.6133 4.90007 24.5257 4.94671 24.4283C4.99335 24.3309 5.02056 24.2238 5.02444 24.1148C5.02833 24.0058 5.01084 23.8987 4.97197 23.7974C4.38513 22.0391 4.08977 20.2009 4.09366 18.3491C4.09366 14.1976 5.5491 10.679 8.30455 8.17684C10.9045 5.81487 14.5461 4.51607 18.5568 4.51607C22.5676 4.51607 26.211 5.81876 28.811 8.17684C31.5665 10.6829 33.0219 14.1957 33.0219 18.3491C33.0258 20.199 32.7285 22.0371 32.1436 23.7955C32.0756 23.998 32.0931 24.218 32.1883 24.4069C32.2854 24.5977 32.4526 24.7418 32.6566 24.808C32.7576 24.8411 32.8645 24.8547 32.9694 24.847C33.0763 24.8392 33.1793 24.8119 33.2745 24.7632C33.3697 24.7165 33.4552 24.6503 33.5232 24.5705C33.5913 24.4906 33.6457 24.3991 33.6787 24.2978C34.318 22.3779 34.6425 20.3684 34.6406 18.3471C34.6406 13.7303 33.0025 9.80471 29.905 6.99098L29.907 6.99293Z" fill="white"/>
<path d="M28.5467 25.7953C28.2533 26.1516 28.0357 26.578 27.9191 27.0259C27.8919 27.1272 27.8724 27.2304 27.855 27.3355C27.2739 27.4679 26.7357 27.7503 26.2887 28.1611C25.939 28.4824 25.6611 28.8699 25.4707 29.2964C25.2763 29.2691 25.0781 29.2535 24.8799 29.2535C24.4194 29.2535 23.9666 29.3295 23.5314 29.4813C22.9503 29.6839 22.4276 30.009 21.9962 30.4316C21.6737 30.1707 21.3219 29.9448 20.9527 29.7617C20.2202 29.3996 19.4021 29.2009 18.5859 29.1873C18.5548 29.1873 18.5218 29.1873 18.4907 29.1873C17.696 29.1873 16.9265 29.3528 16.2017 29.6819C15.8033 29.861 15.4263 30.0908 15.0785 30.3595C14.6335 29.9467 14.103 29.6352 13.5181 29.4482C13.1159 29.3197 12.6961 29.2555 12.2745 29.2555C12.0665 29.2555 11.8606 29.271 11.6565 29.3022C11.4661 28.8758 11.1902 28.4902 10.8423 28.1689C10.3896 27.7503 9.84159 27.466 9.25086 27.3336C9.20617 27.0512 9.12261 26.7747 9.00213 26.5118C8.73008 25.914 8.28898 25.4233 7.7274 25.0904C7.46701 24.9365 7.18525 24.8236 6.89378 24.7496C6.84908 24.9287 6.78496 25.104 6.70529 25.2734C6.64117 25.4097 6.56149 25.5363 6.47793 25.657C6.74415 25.6998 7.00065 25.7894 7.23578 25.9277C7.62442 26.1574 7.93338 26.5002 8.11993 26.913C8.30842 27.3258 8.36476 27.7873 8.28509 28.2332C8.36088 28.2234 8.43667 28.2234 8.5144 28.2234C9.13233 28.2234 9.72889 28.459 10.1855 28.8816C10.6422 29.3041 10.9259 29.8825 10.9842 30.5056C11.3942 30.3206 11.8353 30.2271 12.2764 30.2271C12.597 30.2271 12.9157 30.2758 13.2266 30.3751C13.965 30.6088 14.5927 31.1092 14.993 31.7791C15.436 31.2611 15.986 30.8463 16.6058 30.5659C17.2004 30.2972 17.8436 30.157 18.4966 30.157C18.5218 30.157 18.549 30.157 18.5743 30.157C19.2525 30.1687 19.919 30.3303 20.5272 30.6321C21.1354 30.934 21.6717 31.3662 22.0973 31.8998C22.4762 31.1949 23.1039 30.6613 23.8539 30.4004C24.1882 30.2836 24.5379 30.2271 24.8858 30.2271C25.3172 30.2271 25.7485 30.3167 26.1527 30.4939C26.213 29.8727 26.4986 29.2983 26.9533 28.8777C27.41 28.4591 28.0026 28.2254 28.6206 28.2234C28.6925 28.2234 28.7624 28.2273 28.8343 28.2332C28.776 27.9138 28.7877 27.5848 28.8693 27.2712C28.9509 26.9577 29.0986 26.6657 29.3046 26.4164C29.5106 26.1672 29.7671 25.9666 30.0585 25.8284C30.2567 25.7349 30.4685 25.6745 30.6842 25.6434C30.6046 25.5304 30.5307 25.4136 30.4666 25.289C30.3772 25.1118 30.3092 24.9249 30.2606 24.734C30.0488 24.7847 29.8409 24.8547 29.6446 24.9482C29.2268 25.1449 28.8518 25.4389 28.5564 25.7972L28.5467 25.7953Z" fill="white"/>
<path d="M32.9189 26.7961C33.088 27.1135 33.1793 27.4699 33.1812 27.8359C33.1832 28.4221 32.9558 28.9867 32.5478 29.4034C32.1397 29.8202 31.5839 30.0558 31.0029 30.0577C31.1195 30.4783 31.1253 30.9203 31.0204 31.3429C30.9155 31.7654 30.7037 32.1529 30.4044 32.4684C30.1052 32.7838 29.7321 33.0136 29.3182 33.1363C29.0889 33.2044 28.8518 33.2395 28.6128 33.2395C28.4224 33.2395 28.2319 33.218 28.0454 33.1733C28.057 33.2628 28.057 33.3524 28.057 33.442C28.057 34.0378 27.8938 34.622 27.5829 35.1302C27.2739 35.6365 26.829 36.0473 26.3023 36.3141C25.8593 36.538 25.3735 36.6529 24.8819 36.6529C24.7867 36.6529 24.6914 36.649 24.5982 36.6393C24.0113 36.5867 23.4497 36.3686 22.9776 36.0104C22.7249 37.0093 22.1536 37.8972 21.3511 38.5339C20.5486 39.1707 19.5614 39.5231 18.5393 39.5348C18.5218 39.5348 18.5043 39.5348 18.4888 39.5348C17.4861 39.5348 16.5106 39.2057 15.7081 38.5982C14.8919 37.979 14.3012 37.1047 14.0272 36.1116C13.5492 36.4329 12.9934 36.6179 12.4202 36.6471C12.3697 36.649 12.3192 36.651 12.2686 36.651C11.7459 36.651 11.231 36.5205 10.7704 36.2713C10.2633 35.9967 9.83965 35.5898 9.54623 35.0913C9.25087 34.5928 9.09541 34.0222 9.09541 33.442C9.09541 33.3505 9.0993 33.2589 9.10707 33.1655C8.91081 33.2142 8.71066 33.2395 8.51051 33.2395C8.27927 33.2395 8.04997 33.2064 7.8265 33.1421C7.40872 33.0214 7.0298 32.7916 6.72861 32.4762C6.42741 32.1607 6.21172 31.7713 6.10484 31.3448C5.99797 30.9184 6.00573 30.4725 6.12427 30.0499C5.67539 30.0499 5.23624 29.9078 4.86898 29.6468C4.50171 29.3859 4.2219 29.016 4.07033 28.5895C3.91876 28.1631 3.89932 27.6977 4.01786 27.2596C4.05866 27.1116 4.11307 26.9694 4.18108 26.8331C4.11501 26.8331 4.0509 26.8312 3.98483 26.8253C3.71472 26.802 3.45239 26.7397 3.20172 26.6403C3.15314 26.7591 3.11038 26.8799 3.07735 27.0064C2.90635 27.6393 2.93356 28.2994 3.15314 28.9166C3.37272 29.5359 3.77107 30.0616 4.3035 30.4413C4.53863 30.6088 4.79124 30.7412 5.05746 30.8385C5.06523 31.0878 5.09827 31.339 5.16045 31.5824C5.30814 32.1724 5.60545 32.7157 6.02518 33.1518C6.4449 33.59 6.97345 33.9113 7.55446 34.0787C7.76239 34.1391 7.97418 34.18 8.18988 34.1994C8.27927 34.6882 8.45416 35.1594 8.70872 35.5898C9.09347 36.2401 9.64533 36.7717 10.308 37.13C10.9084 37.4552 11.5866 37.6265 12.2686 37.6265C12.3347 37.6265 12.4008 37.6265 12.4688 37.6227C12.8224 37.6051 13.1703 37.5428 13.5065 37.4377C13.8931 38.1951 14.4469 38.865 15.1251 39.379C16.0889 40.1112 17.2859 40.5143 18.4927 40.5143H18.5549C19.7829 40.5006 20.9936 40.0703 21.9593 39.3031C22.6064 38.789 23.135 38.1309 23.5022 37.3909C23.8267 37.5078 24.1668 37.5818 24.5146 37.6129C24.637 37.6246 24.7633 37.6304 24.8858 37.6304C25.527 37.6304 26.1702 37.4766 26.7454 37.1865C27.4352 36.8379 28.0124 36.3044 28.4165 35.6423C28.6886 35.1984 28.8732 34.7077 28.9645 34.1994C29.1783 34.178 29.3901 34.1352 29.598 34.0729C30.1732 33.9015 30.6959 33.5783 31.1098 33.1421C31.5237 32.7059 31.8191 32.1665 31.9648 31.5824C32.025 31.3409 32.0581 31.0956 32.0658 30.8483C32.505 30.6886 32.9053 30.4316 33.2415 30.0889C33.8342 29.4852 34.1567 28.6849 34.1528 27.8359C34.1509 27.4095 34.0654 26.9967 33.906 26.615C33.6515 26.7143 33.3833 26.7747 33.1074 26.7942C33.0452 26.7981 32.9811 26.8 32.917 26.8L32.9189 26.7961Z" fill="white"/>
<path d="M31.2478 24.6737C31.2691 24.7321 31.2944 24.7905 31.3235 24.847C31.5373 25.2695 31.9046 25.585 32.3554 25.733C32.5361 25.7933 32.7246 25.8225 32.915 25.8225C32.9578 25.8225 32.9986 25.8225 33.0413 25.8186C33.156 25.8108 33.2687 25.7914 33.3794 25.7622C33.3289 25.7018 33.2764 25.6434 33.2201 25.5869C32.6857 25.0514 31.992 24.734 31.2478 24.6737Z" fill="white"/>
<path d="M4.218 25.8595C4.40649 25.8595 4.59304 25.8303 4.77182 25.7719C5.00111 25.6959 5.21098 25.5791 5.39169 25.4194C5.57435 25.2598 5.72009 25.0689 5.82502 24.8509C5.85417 24.7885 5.87943 24.7262 5.90081 24.662C5.88915 24.662 5.87555 24.662 5.86389 24.662C5.21292 24.7165 4.60276 24.9677 4.10141 25.3902C3.95762 25.511 3.82937 25.6434 3.71083 25.7855C3.82548 25.8206 3.94402 25.842 4.06644 25.8517C4.11696 25.8556 4.16748 25.8576 4.218 25.8576V25.8595Z" fill="white"/>
<path d="M31.2245 23.4859C31.7783 21.8268 32.0561 20.0996 32.0542 18.3491C32.0542 14.4819 30.7076 11.2145 28.162 8.89926C25.7388 6.70085 22.3285 5.48968 18.5607 5.48968C14.7928 5.48968 11.3806 6.70085 8.96134 8.89926C6.41576 11.2106 5.06912 14.48 5.06912 18.3511C5.06524 20.0938 5.34311 21.8171 5.89303 23.4722C5.97465 23.6923 6.00963 23.9201 5.99992 24.1538C5.99214 24.329 5.96105 24.4984 5.90276 24.66C5.97854 24.6542 6.05238 24.6503 6.12816 24.6503C6.38661 24.6503 6.64311 24.6834 6.89183 24.7457C6.93653 24.5646 6.96374 24.3796 6.97151 24.1908C6.98511 23.8344 6.9307 23.4839 6.81022 23.149C6.29722 21.5971 6.03683 19.9828 6.04072 18.3511C6.04072 14.7604 7.27659 11.7402 9.61424 9.61778C11.8547 7.581 15.0338 6.4594 18.5626 6.4594C22.0915 6.4594 25.2686 7.581 27.513 9.61778C29.8506 11.7422 31.0845 14.7623 31.0845 18.3452C31.0884 19.9906 30.8261 21.6146 30.3053 23.1724C30.1382 23.6747 30.1227 24.218 30.2529 24.7282C30.4919 24.6717 30.7348 24.6406 30.9796 24.6406C31.0496 24.6406 31.1176 24.6483 31.1836 24.662C31.205 24.662 31.2264 24.6678 31.2497 24.6698C31.1079 24.2901 31.0962 23.8675 31.2264 23.482L31.2245 23.4859Z" fill="white"/>
<path d="M31.2108 5.55004C27.9541 2.59222 23.4595 0.962402 18.5587 0.962402C13.658 0.962402 9.16342 2.59222 5.90663 5.55004C2.3914 8.74348 0.533723 13.1676 0.533723 18.3452C0.529837 20.5689 0.883492 22.7693 1.58498 24.884C1.68797 25.2228 1.85315 25.5363 2.07856 25.8128C2.31369 26.1029 2.60127 26.3385 2.92967 26.5138C3.01905 26.5605 3.11039 26.6014 3.20172 26.6384C3.32608 26.3288 3.49708 26.0406 3.71083 25.7875C3.59813 25.7544 3.48931 25.7096 3.38243 25.6531C3.16868 25.5402 2.98409 25.3883 2.83057 25.1994C2.68289 25.0183 2.57601 24.8139 2.50994 24.5899C1.83954 22.5707 1.49949 20.4696 1.50337 18.3452C1.50337 13.4499 3.2503 9.27507 6.55761 6.27052C9.63562 3.47431 13.897 1.93407 18.5568 1.93407C23.2166 1.93407 27.478 3.47431 30.556 6.27052C33.8633 9.27312 35.6122 13.4499 35.6122 18.3472C35.616 20.4774 35.276 22.5843 34.5998 24.6094C34.5259 24.8333 34.4093 25.0358 34.2539 25.213C34.1004 25.3902 33.9158 25.5324 33.704 25.6356C33.5971 25.6882 33.4883 25.729 33.3736 25.7602C33.5951 26.0172 33.7739 26.3015 33.9022 26.6092C33.9799 26.578 34.0576 26.5449 34.1334 26.5079C34.4579 26.3463 34.7436 26.1263 34.9826 25.8537C35.2235 25.5791 35.4023 25.2637 35.5189 24.9171C36.2282 22.7926 36.5838 20.5806 36.5818 18.3433C36.5818 13.1656 34.7241 8.73959 31.207 5.54615L31.2108 5.55004Z" fill="white"/>
<path d="M4.28018 24.8801C4.25298 24.882 4.22383 24.884 4.19663 24.884C4.18108 24.884 4.16554 24.884 4.14805 24.884C4.17137 24.8859 4.19468 24.8879 4.218 24.8879C4.23938 24.8879 4.25881 24.884 4.28018 24.882V24.8801Z" fill="white"/>
<path d="M32.9694 24.847C32.9578 24.847 32.9461 24.847 32.9344 24.847C32.9053 24.847 32.8762 24.845 32.847 24.8431C32.8684 24.8431 32.8917 24.8489 32.9131 24.8489C32.9325 24.8489 32.95 24.8489 32.9694 24.8489L32.9694 24.847Z" fill="white"/>
<path d="M32.9268 23.8753H32.9072L32.915 24.0058L32.9268 23.8753Z" fill="white"/>
<path d="M33.0394 25.8186C32.9966 25.8225 32.9558 25.8225 32.9131 25.8225C32.7226 25.8225 32.5342 25.7914 32.3534 25.733C31.9026 25.585 31.5354 25.2695 31.3216 24.847C31.2925 24.7905 31.2672 24.7321 31.2458 24.6737C31.2244 24.6737 31.2031 24.6678 31.1797 24.6659C31.1137 24.6522 31.0457 24.6445 30.9757 24.6445C30.7328 24.6445 30.488 24.6756 30.249 24.7321C30.2975 24.9229 30.3656 25.1098 30.4549 25.287C30.5191 25.4117 30.5929 25.5285 30.6726 25.6414C30.7717 25.6278 30.8727 25.6181 30.9738 25.6181L30.9777 25.6336H30.9874C31.5645 25.6336 32.1183 25.8634 32.5264 26.2743C32.6818 26.4301 32.8101 26.6053 32.9131 26.7961C32.9753 26.7961 33.0394 26.7942 33.1035 26.7903C33.3794 26.7708 33.6476 26.7104 33.9022 26.6111C33.7739 26.3035 33.5951 26.0192 33.3736 25.7622C33.2629 25.7914 33.1502 25.8108 33.0355 25.8186H33.0394Z" fill="white"/>
<path d="M4.17915 26.8312C4.31323 26.5664 4.49782 26.3288 4.72712 26.136C5.073 25.8459 5.49857 25.6687 5.9455 25.6317C6.00574 25.6258 6.06597 25.6239 6.12621 25.6239C6.2428 25.6239 6.35746 25.6356 6.47211 25.6551C6.55761 25.5343 6.63533 25.4058 6.69946 25.2715C6.78107 25.102 6.84326 24.9268 6.88795 24.7477C6.63922 24.6853 6.38271 24.6522 6.12427 24.6522C6.04848 24.6522 5.97465 24.6561 5.89886 24.662C5.87749 24.7262 5.85222 24.7885 5.82308 24.8509C5.71814 25.0689 5.57241 25.2598 5.38975 25.4194C5.20903 25.5772 4.99917 25.6959 4.76987 25.7719C4.5911 25.8303 4.40456 25.8595 4.21607 25.8595C4.16554 25.8595 4.11307 25.8576 4.06449 25.8537C3.94402 25.8439 3.82548 25.8206 3.70889 25.7875C3.49514 26.0426 3.32414 26.3288 3.19977 26.6384C3.45044 26.7377 3.71084 26.8 3.98288 26.8234C4.04701 26.8292 4.11308 26.8312 4.17915 26.8312Z" fill="white"/>
</svg>
